<?xml version="1.0" encoding="utf-8"?>
<!-- Generator: Adobe Illustrator 23.0.2, SVG Export Plug-In . SVG Version: 6.00 Build 0)  -->
<svg version="1.1" id="Layer_1" xmlns="http://www.w3.org/2000/svg" xmlns:xlink="http://www.w3.org/1999/xlink" x="0px" y="0px"
	 viewBox="0 0 490.04 198.43" style="enable-background:new 0 0 490.04 198.43;" xml:space="preserve">
<style type="text/css">
	.st0{fill:#B2D78D;}
	.st1{fill-rule:evenodd;clip-rule:evenodd;}
	.st2{fill-rule:evenodd;clip-rule:evenodd;fill:#FFFFFF;}
</style>
<rect x="0.61" class="st0" width="489.58" height="198.43"/>
<path d="M166.82,160.94c0.09,6.93-2.87,11.05-8.87,12.38c-1.74,0.38-4.29,0.57-7.66,0.57l-10.1,0.01l0.18,13.96l-8.29,0.01
	l-0.51-39.96l18.06-0.02c3.1,0,5.54,0.16,7.33,0.5c3.19,0.61,5.65,2.04,7.38,4.31C165.95,154.91,166.78,157.65,166.82,160.94
	L166.82,160.94z M157.62,160.95c-0.03-2.34-0.82-3.97-2.39-4.88c-1.22-0.68-3.1-1.02-5.64-1.02l-9.65,0.01l0.16,11.75l10.16-0.01
	C155.22,166.8,157.68,164.84,157.62,160.95L157.62,160.95z M209.97,187.8l-9.26,0.01l-3.76-9.47l-17.2,0.02l-3.4,9.48l-8.8,0.01
	l16.18-39.97l8.86-0.01L209.97,187.8L209.97,187.8z M194.14,171.19l-6.21-15.31l-5.54,15.33L194.14,171.19L194.14,171.19z
	 M248.92,187.76l-9.37,0.01l-8.89-15.65l-9.82,0.01l0.2,15.67l-8.29,0.01l-0.51-39.96l20.49-0.02c4.54,0,7.92,0.85,10.14,2.54
	c2.48,1.93,3.75,5.09,3.81,9.48c0.08,6.32-2.54,10.07-7.86,11.24L248.92,187.76L248.92,187.76z M238.29,159.96
	c-0.03-2.12-0.8-3.53-2.32-4.25c-1.03-0.49-2.74-0.74-5.12-0.73l-10.22,0.01l0.13,10.05l10.22-0.02c2.31,0,3.99-0.29,5.04-0.85
	C237.55,163.41,238.31,162.01,238.29,159.96L238.29,159.96z M283.75,154.81l-12.89,0.01l0.42,32.92l-8.57,0.01l-0.42-32.92
	l-12.77,0.01l-0.09-6.98l34.24-0.04L283.75,154.81L283.75,154.81z M323.01,187.69l-9.65,0.01l-17.41-30.18l0.78,30.19l-8.52,0.01
	l-0.51-39.96l10.5-0.01l16.55,28.71l-0.76-28.72l8.52-0.01L323.01,187.69L323.01,187.69z M361,187.65l-14.08,0.02
	c-3.15,0-5.59-0.26-7.34-0.79c-3.88-1.17-6.78-3.57-8.73-7.2c-1.66-3.1-2.53-6.85-2.58-11.23c-0.09-6.78,1.23-11.85,3.95-15.22
	c2.99-3.67,7.79-5.51,14.41-5.52l13.85-0.01l0.09,6.98l-13.72,0.02c-2.98,0-5.29,0.81-6.9,2.41c-1.62,1.6-2.4,3.9-2.37,6.91
	l23.11-0.02l0.09,6.93l-23.11,0.02c0.05,3.41,0.81,5.89,2.28,7.44c1.48,1.55,3.9,2.32,7.27,2.32l13.68-0.01L361,187.65L361,187.65z
	 M404.37,187.61l-9.37,0.01l-8.89-15.66l-9.83,0.01l0.2,15.67l-8.29,0.01l-0.51-39.97l20.5-0.02c4.54-0.01,7.92,0.84,10.14,2.54
	c2.49,1.93,3.76,5.09,3.81,9.48c0.08,6.32-2.54,10.07-7.86,11.25L404.37,187.61L404.37,187.61z M393.73,159.81
	c-0.02-2.12-0.8-3.54-2.32-4.26c-1.03-0.49-2.73-0.74-5.12-0.73l-10.22,0.01l0.13,10.05l10.22-0.01c2.31,0,3.99-0.29,5.04-0.86
	C393,163.25,393.76,161.85,393.73,159.81L393.73,159.81z"/>
<path class="st1" d="M210.09,112.46c4.34,3.93,10.61,10.34,18.65,11.19c6.55,0.69,11.73-1.87,16.03-6.71
	c12.29-18.48,2-48.51-11.18-61.52c-5.82-5.74-17.73-12.96-27.59-6.71c-2.98,1.89-4.79,2.84-7.08,7.46
	C189.25,75.58,199.78,100.82,210.09,112.46L210.09,112.46z M244.02,96.8c-0.08,10.08-2.88,19.76-11.56,22.74
	c-19.26,6.61-32.54-25.11-33.55-40.27c-1.17-17.34,7.61-34.35,23.86-25.73C234.09,59.56,244.17,77.48,244.02,96.8L244.02,96.8z"/>
<path class="st2" d="M282.8,90.84c-0.48,2.01,0.42,10.32,0,14.17c-0.47,4.79-0.68,9.12-1.84,12.15h-4.17
	c0.01-0.07,0.02-0.14,0.04-0.21c4.44-30.51-5.31-57.94-17.9-75.69c-6.81-9.61-17.94-21.31-29.08-25.72
	c-31.01-12.29-48.96,12.83-50.71,41.01c-1.38,22.22,5.59,45.31,14.91,60.4c0.02,0.07,0.04,0.14,0.05,0.21h-2.98
	c-2.08-2.18-4.45-7.68-5.64-10.28c-2.31-5.05-3.85-9.67-4.84-13.05c-0.38-1.29-0.44-2.04-0.75-3.36l-1.12-4.85
	c-0.06-0.56,0.13-1.37-0.38-1.49c-0.85-1.88-0.62-4.85-1.49-6.71c-3.93-35.39,4.91-75.15,41.39-71.59
	c4.31,0.42,8.44,2.22,12.67,3.36c1.11,1,2.78,1.44,4.1,2.24c17.36,9.87,29.4,25.04,38.4,43.25c3.67,7.27,6.13,15.74,8.2,24.61
	c-0.21,1.7,0.66,2.32,0.37,4.1c0.01,0.24-0.02,0.5,0,0.74L282.8,90.84L282.8,90.84z"/>
<path class="st2" d="M268.25,116.19c4.14-22.32-1.62-45.01-10.06-61.15c-8.08-15.43-21.05-31.82-39.15-35.05
	c-13.67-2.44-23.36,4.22-28.71,13.05c-14.1,23.27-5.08,64.03,7.45,82.77c0.13,0,0.25,0,0.38,0c0.14,0.52,0.34,0.97,0.64,1.33h3.61
	c-0.36-0.76-1.02-1.2-1.26-2.07c-14.96-19.81-23.9-79.31,4.85-89.86c9.47-3.48,21.24,1.23,26.84,5.59
	c20.07,15.61,36.15,50.63,28.81,86.34h6.4C268.21,116.89,268.29,116.58,268.25,116.19L268.25,116.19z"/>
<path class="st2" d="M254.46,113.58c6.42-16.48,2.59-36.3-4.1-51.08c-6.48-14.33-16.47-27.45-30.94-30.95
	c-10.72-2.59-19.23,3.31-22.74,8.95c-12.72,20.4-3.14,54.27,7.08,71.22c1.42,1.85,2.48,4.07,4.4,5.43h6.44
	c-1.45-1.61-3.34-2.78-4.5-4.69c-10.31-11.64-20.89-36.91-11.18-56.3c1.74-3.48,4.1-5.57,7.08-7.46c9.87-6.25,21.78,0.98,27.59,6.71
	c13.19,13.01,23.48,43.05,11.18,61.52c0,0.08-0.01,0.15-0.04,0.21h8C253.3,115.95,253.67,114.56,254.46,113.58L254.46,113.58z
	 M220.16,43.86c-18.37-5.43-25.11,13.06-27.21,26.47c-0.29-18,5.48-36.05,23.49-33.93c10.21,1.21,18.98,9.8,24.61,18.27
	c5.86,8.82,9.68,20.3,10.07,28.71C246.98,66.88,235.93,48.52,220.16,43.86L220.16,43.86z"/>
<path class="st2" d="M223.51,80.02c-1.66-4.05-3.49-9.33-9.32-8.95c-3.01,0.2-4.84,3.34-5.22,5.22c-1.48,7.29,2.89,18.54,8.95,19.39
	C226.38,96.86,226.07,86.24,223.51,80.02L223.51,80.02z"/>
</svg>
