<?xml version="1.0" encoding="utf-8"?>
<svg version="1.1" xmlns="http://www.w3.org/2000/svg" xmlns:xlink="http://www.w3.org/1999/xlink" x="0px" y="0px"
	 viewBox="0 0 490.04 198.43" style="enable-background:new 0 0 490.04 198.43;" xml:space="preserve">
<style type="text/css">
	.st0{fill:#FFFFFF;}
	.st1{fill:#B2D78D;}
	.st2{fill-rule:evenodd;clip-rule:evenodd;fill:#B2D78D;}
</style>
<path class="st0" d="M195.17,100.42c0.09,6.93-2.87,11.05-8.87,12.38c-1.74,0.38-4.29,0.57-7.66,0.57l-10.1,0.01l0.18,13.96
	l-8.29,0.01l-0.51-39.96l18.06-0.02c3.1,0,5.54,0.16,7.33,0.5c3.19,0.61,5.65,2.04,7.38,4.31
	C194.3,94.39,195.13,97.12,195.17,100.42L195.17,100.42z M185.98,100.43c-0.03-2.34-0.82-3.97-2.39-4.88
	c-1.22-0.68-3.1-1.02-5.64-1.02l-9.65,0.01l0.16,11.75l10.16-0.01C183.57,106.28,186.03,104.32,185.98,100.43L185.98,100.43z
	 M238.33,127.28l-9.26,0.01l-3.76-9.47l-17.2,0.02l-3.4,9.48l-8.8,0.01l16.18-39.97l8.86-0.01L238.33,127.28L238.33,127.28z
	 M222.5,110.66l-6.21-15.31l-5.54,15.33L222.5,110.66L222.5,110.66z M277.27,127.24l-9.37,0.01l-8.89-15.65l-9.82,0.01l0.2,15.67
	l-8.29,0.01l-0.51-39.96l20.49-0.02c4.54,0,7.92,0.85,10.14,2.54c2.48,1.93,3.75,5.09,3.81,9.48c0.08,6.32-2.54,10.07-7.86,11.24
	L277.27,127.24L277.27,127.24z M266.64,99.44c-0.03-2.12-0.8-3.53-2.32-4.25c-1.03-0.49-2.74-0.74-5.12-0.73l-10.22,0.01l0.13,10.05
	l10.22-0.02c2.31,0,3.99-0.29,5.04-0.85C265.91,102.89,266.67,101.49,266.64,99.44L266.64,99.44z M312.11,94.29l-12.89,0.01
	l0.42,32.92l-8.57,0.01l-0.42-32.92l-12.77,0.01l-0.09-6.98l34.24-0.04L312.11,94.29L312.11,94.29z M351.36,127.17l-9.65,0.01
	L324.29,97l0.78,30.19l-8.52,0.01l-0.51-39.96l10.5-0.01l16.55,28.71l-0.76-28.72l8.52-0.01L351.36,127.17L351.36,127.17z
	 M389.35,127.13l-14.08,0.02c-3.15,0-5.59-0.26-7.34-0.79c-3.88-1.17-6.78-3.57-8.73-7.2c-1.66-3.1-2.53-6.85-2.58-11.23
	c-0.09-6.78,1.23-11.85,3.95-15.22c2.99-3.67,7.79-5.51,14.41-5.52l13.85-0.01l0.09,6.98l-13.72,0.02c-2.98,0-5.29,0.81-6.9,2.41
	c-1.62,1.6-2.4,3.9-2.37,6.91l23.11-0.02l0.09,6.93l-23.11,0.02c0.05,3.41,0.81,5.89,2.28,7.44c1.48,1.55,3.9,2.32,7.27,2.32
	l13.68-0.01L389.35,127.13L389.35,127.13z M432.72,127.09l-9.37,0.01l-8.89-15.66l-9.83,0.01l0.2,15.67l-8.29,0.01l-0.51-39.97
	l20.5-0.02c4.54-0.01,7.92,0.84,10.14,2.54c2.49,1.93,3.76,5.09,3.81,9.48c0.08,6.32-2.54,10.07-7.86,11.25L432.72,127.09
	L432.72,127.09z M422.08,99.28c-0.02-2.12-0.8-3.54-2.32-4.26c-1.03-0.49-2.73-0.74-5.12-0.73l-10.22,0.01l0.13,10.05l10.22-0.01
	c2.31,0,3.99-0.29,5.04-0.86C421.35,102.73,422.11,101.33,422.08,99.28L422.08,99.28z"/>
<g>
	<path class="st2" d="M63.61,136.33c4.34,3.93,10.61,10.34,18.65,11.19c6.55,0.69,11.73-1.87,16.03-6.71
		c12.29-18.48,2-48.51-11.18-61.52c-5.82-5.74-17.73-12.96-27.59-6.71c-2.98,1.89-4.79,2.84-7.08,7.46
		C42.77,99.45,53.3,124.69,63.61,136.33L63.61,136.33z M97.54,120.67c-0.08,10.08-2.88,19.76-11.56,22.74
		c-19.26,6.61-32.54-25.11-33.55-40.27C51.26,85.8,60.04,68.8,76.29,77.42C87.61,83.43,97.69,101.35,97.54,120.67L97.54,120.67z"/>
	<path class="st2" d="M136.32,114.71c-0.48,2.01,0.42,10.32,0,14.17c-0.47,4.79-0.68,9.12-1.84,12.15h-4.17
		c0.01-0.07,0.02-0.14,0.04-0.21c4.44-30.51-5.31-57.94-17.9-75.69c-6.81-9.61-17.94-21.31-29.08-25.72
		C52.36,27.1,34.42,52.22,32.67,80.4c-1.38,22.22,5.59,45.31,14.91,60.4c0.02,0.07,0.04,0.14,0.05,0.21h-2.98
		c-2.08-2.18-4.45-7.68-5.64-10.28c-2.31-5.05-3.85-9.67-4.84-13.05c-0.38-1.29-0.44-2.04-0.75-3.36l-1.12-4.85
		c-0.06-0.56,0.13-1.37-0.38-1.49c-0.85-1.88-0.62-4.85-1.49-6.71c-3.93-35.39,4.91-75.15,41.39-71.59
		c4.31,0.42,8.44,2.22,12.67,3.36c1.11,1,2.78,1.44,4.1,2.24c17.36,9.87,29.4,25.04,38.4,43.25c3.67,7.27,6.13,15.74,8.2,24.61
		c-0.21,1.7,0.66,2.32,0.37,4.1c0.01,0.24-0.02,0.5,0,0.74L136.32,114.71L136.32,114.71z"/>
	<path class="st2" d="M121.77,140.06c4.14-22.32-1.62-45.01-10.06-61.15c-8.08-15.43-21.05-31.82-39.15-35.05
		c-13.67-2.44-23.36,4.22-28.71,13.05c-14.1,23.27-5.08,64.03,7.45,82.77c0.13,0,0.25,0,0.38,0c0.14,0.52,0.34,0.97,0.64,1.33h3.61
		c-0.36-0.76-1.02-1.2-1.26-2.07c-14.96-19.81-23.9-79.31,4.85-89.86c9.47-3.48,21.24,1.23,26.84,5.59
		c20.07,15.61,36.15,50.63,28.81,86.34h6.4C121.73,140.76,121.8,140.45,121.77,140.06L121.77,140.06z"/>
	<path class="st2" d="M107.98,137.45c6.42-16.48,2.59-36.3-4.1-51.08C97.4,72.04,87.41,58.92,72.93,55.42
		c-10.72-2.59-19.23,3.31-22.74,8.95c-12.72,20.4-3.14,54.27,7.08,71.22c1.42,1.85,2.48,4.07,4.4,5.43h6.44
		c-1.45-1.61-3.34-2.78-4.5-4.69c-10.31-11.64-20.89-36.91-11.18-56.3c1.74-3.48,4.1-5.57,7.08-7.46
		c9.87-6.25,21.78,0.98,27.59,6.71c13.19,13.01,23.48,43.05,11.18,61.52c0,0.08-0.01,0.15-0.04,0.21h8
		C106.82,139.82,107.19,138.43,107.98,137.45L107.98,137.45z M73.68,67.73C55.31,62.3,48.57,80.79,46.46,94.2
		c-0.29-18,5.48-36.05,23.49-33.93c10.21,1.21,18.98,9.8,24.61,18.27c5.86,8.82,9.68,20.3,10.07,28.71
		C100.5,90.75,89.45,72.39,73.68,67.73L73.68,67.73z"/>
	<path class="st2" d="M77.03,103.9c-1.66-4.05-3.49-9.33-9.32-8.95c-3.01,0.2-4.84,3.34-5.22,5.22c-1.48,7.29,2.89,18.54,8.95,19.39
		C79.9,120.73,79.59,110.11,77.03,103.9L77.03,103.9z"/>
</g>
</svg>
