<?xml version="1.0" encoding="utf-8"?>
<svg version="1.1" xmlns="http://www.w3.org/2000/svg" xmlns:xlink="http://www.w3.org/1999/xlink" x="0px" y="0px"
     viewBox="0 0 120 120" style="enable-background:new 0 0 120 120;" xml:space="preserve">
<style type="text/css">
	.st1{fill-rule:evenodd;clip-rule:evenodd;}
	.st2{fill-rule:evenodd;clip-rule:evenodd;fill:#B2D78D;}
</style>
    <g transform="translate(-32, -20) scale(0.95)">
<path class="st1" d="M75.81,129.35c4.34,3.93,10.61,10.34,18.65,11.19c6.55,0.69,11.73-1.87,16.03-6.71
	c12.29-18.48,2-48.51-11.18-61.52c-5.82-5.74-17.73-12.96-27.59-6.71c-2.98,1.89-4.79,2.84-7.08,7.46
	C54.98,92.46,65.5,117.71,75.81,129.35L75.81,129.35z M109.75,113.69c-0.08,10.08-2.88,19.76-11.56,22.74
	c-19.26,6.61-32.54-25.11-33.55-40.27c-1.17-17.34,7.61-34.35,23.86-25.73C99.81,76.44,109.89,94.37,109.75,113.69L109.75,113.69z"
/>
        <path class="st2" d="M148.52,107.73c-0.48,2.01,0.42,10.32,0,14.17c-0.47,4.79-0.68,9.12-1.84,12.15h-4.17
	c0.01-0.07,0.02-0.14,0.04-0.21c4.44-30.51-5.31-57.94-17.9-75.69c-6.81-9.61-17.94-21.31-29.08-25.72
	C64.56,20.12,46.62,45.24,44.87,73.42c-1.38,22.22,5.59,45.31,14.91,60.4c0.02,0.07,0.04,0.14,0.05,0.21h-2.98
	c-2.08-2.18-4.45-7.68-5.64-10.28c-2.31-5.05-3.85-9.67-4.84-13.05c-0.38-1.29-0.44-2.04-0.75-3.36l-1.12-4.85
	c-0.06-0.56,0.13-1.37-0.38-1.49c-0.85-1.88-0.62-4.85-1.49-6.71c-3.93-35.39,4.91-75.15,41.39-71.59
	c4.31,0.42,8.44,2.22,12.67,3.36c1.11,1,2.78,1.44,4.1,2.24c17.36,9.87,29.4,25.04,38.4,43.25c3.67,7.27,6.13,15.74,8.2,24.61
	c-0.21,1.7,0.66,2.32,0.37,4.1c0.01,0.24-0.02,0.5,0,0.74L148.52,107.73L148.52,107.73z"/>
        <path class="st2" d="M133.98,133.08c4.14-22.32-1.62-45.01-10.06-61.15c-8.08-15.43-21.05-31.82-39.15-35.05
	C71.1,34.44,61.4,41.11,56.06,49.93c-14.1,23.27-5.08,64.03,7.45,82.77c0.13,0,0.25,0,0.38,0c0.14,0.52,0.34,0.97,0.64,1.33h3.61
	c-0.36-0.76-1.02-1.2-1.26-2.07c-14.96-19.81-23.9-79.31,4.85-89.86c9.47-3.48,21.24,1.23,26.84,5.59
	c20.07,15.61,36.15,50.63,28.81,86.34h6.4C133.93,133.78,134.01,133.46,133.98,133.08L133.98,133.08z"/>
        <path class="st2" d="M120.18,130.47c6.42-16.48,2.59-36.3-4.1-51.08c-6.48-14.33-16.47-27.45-30.94-30.95
	c-10.72-2.59-19.23,3.31-22.74,8.95c-12.72,20.4-3.14,54.27,7.08,71.22c1.42,1.85,2.48,4.07,4.4,5.43h6.44
	c-1.45-1.61-3.34-2.78-4.5-4.69c-10.31-11.64-20.89-36.91-11.18-56.3c1.74-3.48,4.1-5.57,7.08-7.46c9.87-6.25,21.78,0.98,27.59,6.71
	c13.19,13.01,23.48,43.05,11.18,61.52c0,0.08-0.01,0.15-0.04,0.21h8C119.02,132.84,119.4,131.45,120.18,130.47L120.18,130.47z
	 M85.88,60.74C67.51,55.31,60.78,73.8,58.67,87.22c-0.29-18,5.48-36.05,23.49-33.93c10.21,1.21,18.98,9.8,24.61,18.27
	c5.86,8.82,9.68,20.3,10.07,28.71C112.7,83.77,101.66,65.41,85.88,60.74L85.88,60.74z"/>
        <path class="st2" d="M89.24,96.91c-1.66-4.05-3.49-9.33-9.32-8.95c-3.01,0.2-4.84,3.34-5.22,5.22c-1.48,7.29,2.89,18.54,8.95,19.39
	C92.1,113.75,91.8,103.13,89.24,96.91L89.24,96.91z"/>
</g>
</svg>
